<svg width="30" height="59" viewBox="0 0 30 59" xmlns="http://www.w3.org/2000/svg" xmlns:xlink="http://www.w3.org/1999/xlink"><defs><path id="c" d="M2.5 10.5h25v37.75h-25z"/><path id="e" d="M12.762.033H.045v11.248h12.717V.033z"/><rect id="a" x="12" y="50.5" width="6" height="6" rx="3"/><mask id="b" x="0" y="0" width="6" height="6" fill="#fff"><use xlink:href="#a"/></mask></defs><g fill="none" fill-rule="evenodd"><rect fill="#FFF" width="30" height="59" rx="2"/><circle fill="#4A4A4A" cx="11.25" cy="5.5" r="1"/><rect fill="#4A4A4A" x="13" y="4.5" width="6.5" height="2" rx="1"/><use stroke="#979797" mask="url(#b)" fill="#4A4A4A" xlink:href="#a"/><mask id="d" fill="#fff"><use xlink:href="#c"/></mask><use fill="#544AA1" xlink:href="#c"/><g mask="url(#d)"><g transform="translate(10.273 21.58)"><mask id="f" fill="#fff"><use xlink:href="#e"/></mask><path d="M2.367 9.551c.526.602 2.096 1.371 2.824 1.548.959.233 1.968.212 2.896.103a5.436 5.436 0 003.081-1.398c1.518-1.407 2.238-3.813.863-5.92C10.024.81 4.285-1.404 1.798 1.15c-2.226 2.287-2.636 5.248.569 8.401" fill="#DEB92A" mask="url(#f)"/></g><path d="M12.23 29.71c1.304-.818 1.302-3.835.815-4.812-.748-1.578-2.842-1.502-4.262-1.163-1.645.377-2.093 1.167-2.056 2.82.039 1.956 1.498 3.91 3.554 3.72.674-.075 1-.03 1.95-.565" fill="#5EB8DD"/><path d="M13.353 29.98c-.237-.53-.586-1.019-1.106-1.3-1.024-.552-2.295-.148-3.182.49-1.206.87-1.931 2.561-1.597 3.978.527-.034 1.088.081 1.33.59.118.239.17.755.095 1.227 1.522.852 2.994.482 4.55-1.4.949-1.05.337-2.63-.09-3.585" fill="#E90B8B"/><path d="M7.468 33.148a3.2 3.2 0 00-.534.082c-.72.165-.915.51-.899 1.233.017.855.655 1.71 1.554 1.626.294-.032.437-.013.852-.247.252-.158.392-.503.452-.877a4.894 4.894 0 01-.179-.105 2.705 2.705 0 01-1.246-1.712" fill="#EF802B"/><path d="M8.797 33.738c-.24-.509-.802-.624-1.33-.59a2.71 2.71 0 001.247 1.712c.06.037.12.072.179.105.076-.472.023-.988-.096-1.227" fill="#CE153E"/></g><path fill-opacity=".1" fill="#FFF" mask="url(#d)" d="M2 10h26L2 49"/></g></svg>