<svg width="793" height="298" viewBox="0 0 793 298" xmlns="http://www.w3.org/2000/svg"><g fill="none" fill-rule="evenodd"><path d="M41.421 157.115c0-4.484 3.364-8.007 7.687-8.007 4.484 0 7.847 3.523 7.847 8.007v80.225c0 4.324-3.363 7.845-7.847 7.845-4.323 0-7.687-3.52-7.687-7.845v-80.225zm120.74 0c0-4.484 3.361-8.007 7.687-8.007 4.483 0 7.844 3.523 7.844 8.007v80.225c0 4.324-3.36 7.845-7.844 7.845-4.326 0-7.688-3.52-7.688-7.845v-80.225zm160.316 86.471l3.362-2.246c-16.653-1.6-30.903-13.45-30.903-46.274 0-30.586 21.136-46.597 44.355-46.597 6.725 0 13.931 1.281 21.134 3.042 6.727 1.6 9.45 2.88 9.45 13.13v78.304c0 20.334-1.442 54.764-38.272 54.764-19.376 0-29.46-10.57-29.46-25.62 0-14.412 10.568-21.94 20.334-28.503zm33.146-79.905c-5.125-1.6-9.767-2.722-18.255-2.722-16.012 0-27.062 12.33-27.062 35.547 0 11.53.8 34.107 23.38 34.107 12.971 0 21.937-14.412 21.937-28.502v-38.43zm-.16 86.307v-19.533l-20.816 17.771c-9.448 8.006-18.095 15.377-18.095 23.862 0 9.927 6.724 14.252 16.333 14.252 17.613 0 22.577-15.692 22.577-36.352zM776.48 119.31c0-4.484 3.365-8.005 7.688-8.005 4.482 0 7.847 3.521 7.847 8.005v119.241c0 4.322-3.365 7.843-7.847 7.843-4.323 0-7.688-3.52-7.688-7.843v-119.24zM0 119.31c0-4.484 3.362-8.005 7.687-8.005 4.482 0 7.847 3.521 7.847 8.005v119.241c0 4.322-3.365 7.843-7.847 7.843-4.325 0-7.687-3.52-7.687-7.843v-119.24zm130.196 34.915c1.121-2.883 3.682-4.803 6.886-4.803 5.444 0 9.286 4.322 7.046 10.408l-29.304 78.943c-1.28 3.522-3.04 6.405-6.885 6.405-3.843 0-5.285-2.72-6.726-6.405L72.23 160.471c-2.24-5.928.641-11.049 6.726-11.049 3.363 0 5.924 2.08 7.043 4.963l22.26 60.37 21.937-60.53zm129.862 30.423c0-12.808-4.32-23.379-19.052-23.379-13.45 0-24.179 13.77-24.179 30.106v46.117c0 4.324-3.366 7.844-7.846 7.844-4.324 0-7.687-3.52-7.687-7.844v-80.225c0-4.484 3.043-8.006 7.366-8.006 4.481 0 7.527 3.522 7.527 8.006v6.244c6.564-10.886 16.651-14.89 27.54-14.89 20.015 0 31.866 10.726 31.866 32.185v56.686c0 4.324-3.364 7.844-7.844 7.844-4.327 0-7.69-3.52-7.69-7.844v-52.844zm130.668 41.793c1.92 0 3.36.801 4.642 1.442 5.603 3.043 12.17 5.927 21.136 5.927 9.931 0 17.455-4.646 17.455-14.892 0-10.25-9.609-13.614-20.018-16.975-12.646-4.162-26.419-8.808-26.419-26.264 0-18.73 14.893-27.058 31.225-27.058 10.25 0 18.416 2.721 24.5 6.562 1.76.965 4.005 3.045 4.005 6.086 0 3.526-2.404 6.406-5.927 6.406-1.76 0-3.684-.96-5.283-1.923-5.287-3.2-11.37-4.64-17.935-4.64-7.524 0-16.016 2.88-16.016 13.128 0 9.447 9.772 12.973 19.701 16.174 12.33 4.164 26.897 10.248 26.897 27.703 0 18.41-12.97 27.861-32.022 27.861-13.453 0-21.618-3.845-27.544-7.045-2.4-1.283-4.323-3.205-4.323-6.086 0-3.52 2.4-6.406 5.926-6.406zm152.12-31.703c0 36.188-19.054 51.24-42.272 51.24-23.7 0-39.233-15.85-39.233-49.318 0-38.432 23.858-48.039 42.274-48.039 12.81 0 39.23 4.004 39.23 46.117zm-40.352-33.627c-16.812 0-25.62 14.252-25.62 33.785 0 17.778 4.484 38.914 24.978 38.914 16.816 0 25.144-16.336 25.144-36.029 0-21.619-7.207-36.67-24.502-36.67zm112.728 67.254c2.243-1.28 4.965-2.723 7.528-2.723 3.043 0 5.764 1.922 5.764 6.084 0 2.401-1.122 4.325-3.519 5.924-6.407 4.324-16.818 8.328-28.505 8.328-26.42 0-40.673-16.974-40.673-48.677 0-37.793 23.057-48.68 40.511-48.68 9.767 0 19.536 2.24 28.823 9.928 1.602 1.281 2.562 3.363 2.562 5.443 0 3.683-2.562 6.887-6.403 6.887-2.082 0-4.485-1.283-6.088-2.563-6.083-5.125-11.367-6.724-18.732-6.724-14.412 0-25.14 10.886-25.14 35.068 0 21.295 7.524 36.348 26.58 36.348 5.605 0 11.21-1.12 17.292-4.643zm25.944-71.098c0-4.484 3.362-8.006 7.685-8.006 4.485 0 7.847 3.522 7.847 8.006v80.225c0 4.324-3.362 7.844-7.847 7.844-4.323 0-7.685-3.52-7.685-7.844v-80.225zm96.718 71.418c-5.127 9.125-13.449 17.293-28.825 17.293-22.739 0-33.625-17.773-33.625-44.675 0-32.827 15.691-52.682 46.597-52.682 4.803 0 14.73 1.281 22.896 3.521 6.888 1.922 7.686 5.446 7.686 12.17v73.18c0 4.324-2.88 7.844-7.364 7.844-4.324 0-7.365-3.52-7.365-7.844v-8.807zm-.642-26.742v-37.95c-3.524-1.44-10.569-2.882-17.615-2.882-21.456 0-28.822 17.613-28.822 40.67 0 15.693 4.485 32.346 18.895 32.346 18.893 0 27.542-19.694 27.542-32.184z" fill="#FFF"/><path d="M721.48 0c-10.372 0-19.814 2.949-26.562 9.84-2.485 2.539-4.715 5.174-6.657 7.893 6.48 1.382 12.186 4.697 15.282 11.197 3.566 7.115 4.195 26.508-2.217 37.088 2.077 2.218 3.69 4.882 4.945 7.675 2.195 4.872 4.939 11.6 5.218 18.198 4.956 2.625 10.19 4.781 13.482 5.579 4.765 1.151 9.67 1.597 14.51 1.597 3.784 0 7.528-.273 11.134-.696 10.486-1.226 19.96-5.555 27.285-12.315 13.441-12.39 19.82-33.577 7.642-52.14C773.212 15.144 744.973 0 721.48 0" fill="#E9BA2C"/><path d="M679.978 16.923c-4.948 0-9.907.748-14.18 1.764-14.566 3.323-18.537 10.276-18.202 24.844.223 11.263 5.83 22.52 14.775 28.494 1.772-2.066 3.761-3.915 5.927-5.466 4.207-3.011 9.391-5.431 14.692-6.28-6.556-15.465-3.737-29.93 5.271-42.545-2.672-.57-5.474-.811-8.283-.811" fill="#5EB8DD"/><path d="M688.262 17.733c-9.008 12.615-11.827 27.08-5.271 42.546a25.27 25.27 0 013.996-.327c3.267 0 6.5.69 9.492 2.295 1.847.992 3.453 2.28 4.847 3.77 6.413-10.579 5.784-29.972 2.217-37.088-3.095-6.5-8.802-9.815-15.281-11.196" fill="#568626"/><path d="M662.371 72.025c-6.973 8.128-10.574 19.619-8.218 29.57v.002l.004.014c.448-.026.898-.04 1.35-.04 4.202 0 8.38 1.235 10.288 5.244 1.053 2.1 1.651 6.624.98 10.782 4.521 2.514 8.992 3.82 13.457 3.82 8.851 0 17.68-5.13 26.835-16.146 3.531-3.89 4.622-8.601 4.421-13.38-4.752-2.517-9.248-5.465-11.527-8.057-3.405-3.333-6.352-6.643-8.862-9.92-4.744 1.98-7.502 1.873-12.029 2.375-.824.076-1.636.112-2.439.112-5.328 0-10.147-1.63-14.26-4.376" fill="#EC008C"/><path d="M701.326 66.018c-1.344 2.217-2.997 4.047-4.997 5.296-2.023 1.134-3.727 1.973-5.23 2.6 2.51 3.277 5.456 6.587 8.862 9.92 2.28 2.593 6.775 5.54 11.527 8.057-.279-6.598-3.022-13.325-5.217-18.197-1.256-2.793-2.868-5.458-4.945-7.676" fill="#D80018"/><path d="M682.99 60.28c-5.3.848-10.484 3.268-14.69 6.278a33.69 33.69 0 00-5.929 5.467c4.113 2.747 8.931 4.376 14.26 4.376.802 0 1.615-.037 2.44-.112 4.525-.503 7.284-.395 12.027-2.375-3.537-4.615-6.213-9.166-8.108-13.635" fill="#570079"/><path d="M686.986 59.953a25.27 25.27 0 00-3.996.327c1.894 4.468 4.571 9.019 8.108 13.634 1.504-.628 3.208-1.466 5.231-2.6 2-1.25 3.653-3.08 4.997-5.296-1.395-1.49-3-2.778-4.848-3.77-2.992-1.606-6.224-2.295-9.492-2.295" fill="#500014"/><path d="M654.157 101.611l-.137.01a28.59 28.59 0 00-4.727.72c-6.37 1.448-8.103 4.493-7.957 10.862.14 7.186 5.3 14.37 12.694 14.37.351 0 .705-.016 1.065-.049 2.607-.289 5.726-.696 7.545-2.178 2.835-2.308 3.83-4 4.135-7.75 0 0-1.055-.595-1.582-.92-6.144-3.796-9.636-9.162-11.036-15.065" fill="#F1812D"/><path d="M655.506 101.57c-.451 0-.9.015-1.35.042 1.402 5.903 4.893 11.268 11.038 15.063.527.326 1.582.922 1.582.922.67-4.158.072-8.682-.981-10.782-1.91-4.01-6.086-5.244-10.29-5.244" fill="#DF0019"/><path d="M665.928 106.791c-2.135-4.482-7.104-5.496-11.774-5.194 1.398 5.909 4.89 11.28 11.04 15.078.527.326 1.056.63 1.582.924.67-4.159.205-8.707-.848-10.808" fill="#CE143F"/></g></svg>